
<svg id="visual" viewBox="0 0 900 150" width="900" height="150" xmlns="http://www.w3.org/2000/svg" xmlns:xlink="http://www.w3.org/1999/xlink" version="1.1"><rect x="0" y="0" width="900" height="150" fill="#fff"></rect><path d="M0 41L21.5 38.8C43 36.7 86 32.3 128.8 30C171.7 27.7 214.3 27.3 257.2 33.5C300 39.7 343 52.3 385.8 59.8C428.7 67.3 471.3 69.7 514.2 63.3C557 57 600 42 642.8 37.5C685.7 33 728.3 39 771.2 47.3C814 55.7 857 66.3 878.5 71.7L900 77L900 151L878.5 151C857 151 814 151 771.2 151C728.3 151 685.7 151 642.8 151C600 151 557 151 514.2 151C471.3 151 428.7 151 385.8 151C343 151 300 151 257.2 151C214.3 151 171.7 151 128.8 151C86 151 43 151 21.5 151L0 151Z" fill="#003d30"></path><path d="M0 69L21.5 70.7C43 72.3 86 75.7 128.8 75C171.7 74.3 214.3 69.7 257.2 66C300 62.3 343 59.7 385.8 64.2C428.7 68.7 471.3 80.3 514.2 85.2C557 90 600 88 642.8 83.8C685.7 79.7 728.3 73.3 771.2 74.8C814 76.3 857 85.7 878.5 90.3L900 95L900 151L878.5 151C857 151 814 151 771.2 151C728.3 151 685.7 151 642.8 151C600 151 557 151 514.2 151C471.3 151 428.7 151 385.8 151C343 151 300 151 257.2 151C214.3 151 171.7 151 128.8 151C86 151 43 151 21.5 151L0 151Z" fill="#3b6b5f"></path><path d="M0 112L21.5 110.3C43 108.7 86 105.3 128.8 101.2C171.7 97 214.3 92 257.2 91.7C300 91.3 343 95.7 385.8 95.5C428.7 95.3 471.3 90.7 514.2 90.5C557 90.3 600 94.7 642.8 95.8C685.7 97 728.3 95 771.2 93.8C814 92.7 857 92.3 878.5 92.2L900 92L900 151L878.5 151C857 151 814 151 771.2 151C728.3 151 685.7 151 642.8 151C600 151 557 151 514.2 151C471.3 151 428.7 151 385.8 151C343 151 300 151 257.2 151C214.3 151 171.7 151 128.8 151C86 151 43 151 21.5 151L0 151Z" fill="#709c92"></path><path d="M0 124L21.5 123.5C43 123 86 122 128.8 123C171.7 124 214.3 127 257.2 127.2C300 127.3 343 124.7 385.8 121C428.7 117.3 471.3 112.7 514.2 109.7C557 106.7 600 105.3 642.8 109.2C685.7 113 728.3 122 771.2 126C814 130 857 129 878.5 128.5L900 128L900 151L878.5 151C857 151 814 151 771.2 151C728.3 151 685.7 151 642.8 151C600 151 557 151 514.2 151C471.3 151 428.7 151 385.8 151C343 151 300 151 257.2 151C214.3 151 171.7 151 128.8 151C86 151 43 151 21.5 151L0 151Z" fill="#a8cfc7"></path></svg>